,
Brought to you by  http://www.scenetime.com/signup.php
 
 Hottest scene tracker on the net !!!   
 
No fake torrents from scenebalance 
shame on those who comment fake before downloading my torrents

    seed back for speed


 



...................................NFO:.................................................General 
Complete name : Krews 2010 DVDRip Xvid AC3-Freebee.avi 
Format : AVI 
Format/Info : Audio Video Interleave 
File size : 1.44 GiB 
Duration : 1h 45mn 
Overall bit rate : 1 948 Kbps 

Video 
ID : 0 
Format : MPEG-4 Visual 
Format profile : Advanced Simple@L5 
Format settings, BVOP : 2 
Format settings, QPel : Yes 
Format settings, GMC : No warppoints 
Format settings, Matrix : Custom 
Codec ID : XVID 
Codec ID/Hint : XviD 
Duration : 1h 45mn 
Bit rate : 1 492 Kbps 
Width : 720 pixels 
Height : 304 pixels 
Display aspect ratio : 2.35:1 
Frame rate : 23.976 fps 
Color space : YUV 
Chroma subsampling : 4:2:0 
Bit depth : 8 bits 
Scan type : Progressive 
Compression mode : Lossy 
Bits/(Pixel*Frame) : 0.284 
Stream size : 1.10 GiB (77%) 

Audio 
ID : 1 
Format : AC-3 
Format/Info : Audio Coding 3 
Mode extension : CM (complete main) 
Codec ID : 2000 
Duration : 1h 45mn 
Bit rate mode : Constant 
Bit rate : 448 Kbps 
Channel(s) : 6 channels 
Channel positions : Front: L C R, Side: L R, LFE 
Sampling rate : 48.0 KHz 
Bit depth : 16 bits 
Compression mode : Lossy 
Stream size : 340 MiB (23%) 
Alignment : Aligned on interleaves 
Interleave, duration : 64 ms (1.53 video frames) 
Interleave, preload duration : 192 ms 
Title : VTS_01_1 T80 3_2ch 448Kbps DELAY 0ms english 


   
              Language.............: English
              Subtitle.............: English
              Imdb-Rating..........: 6.5/10
              Imdb.................: http://www.imdb.com/title/tt1078583/
              Video-Source.........: DVD
              Audio-Source.........: DVD
              Encoder..............: Freebee269
              Plot.................: A botched car-jacking forces two
 white-collar criminals to take refuge in the home of the thugs that
 accosted them. Over the course of one explosive, unpredictable night,
 worlds collide, fortunes shift, lives are cast aside and the most
 unsuspecting of heroes walks away with a multimillion dollar score.
   
                    
                    Sample Included
                    


                    
                    Greets: All P2P Groups!
                    

 
                                          
                           Respects                  
                    
                     SANTi, TOXiCiNK, LKRG 
                    NPW, FLAWL3SS, BDK, CM8
                      IMAGiNE, ViSiON, Rx  
                          Legion, *THC*